<svg xmlns="http://www.w3.org/2000/svg" width="48" height="48" viewBox="0 0 48 48" fill="none">
  <defs>
    <linearGradient id="miq" x1="0" y1="0" x2="48" y2="48" gradientUnits="userSpaceOnUse">
      <stop stop-color="#1565C0"/>
      <stop offset="1" stop-color="#0EA5A5"/>
    </linearGradient>
  </defs>
  <rect width="48" height="48" rx="11" fill="url(#miq)"/>
  <g transform="translate(10.8 10.8) scale(1.1)">
    <path fill="#fff" d="M22.7 19l-9.1-9.1c.9-2.3.4-5-1.5-6.9-2-2-5-2.4-7.4-1.3L9 6 6 9 1.6 4.7C.4 7.1.9 10.1 2.9 12.1c1.9 1.9 4.6 2.4 6.9 1.5l9.1 9.1c.4.4 1 .4 1.4 0l2.3-2.3c.5-.4.5-1.1.1-1.4z"/>
  </g>
</svg>
